# xmcd CD database file
#
# Track frame offsets:
#	150
#	20640
#	38752
#	64922
#	80483
#	101948
#	122303
#	144884
#	166982
#	187299
#	213056
#	238653
#
# Disc length: 3548 seconds
#
# Revision: 1
# Processed by: cddbd v1.5.2PL0 Copyright (c) Steve Scherf et al.
# Submitted via: CDex 1.51
#
DISCID=a20dda0c
DTITLE=Mélanie Dahan - Latine
DYEAR=2011
DGENRE=Jazz Vocal
TTITLE0=Utile
TTITLE1=Berimbau
TTITLE2=Retrato Em Branco E Preto
TTITLE3=Vingt Ans
TTITLE4=Que Feras-tu De Ta Vie ?
TTITLE5=Luiza
TTITLE6=Le Prochain Amour
TTITLE7=El Cosechero
TTITLE8=Flor De Lis
TTITLE9=J'ai Eu Trente Ans
TTITLE10=Catavento E Girassol
TTITLE11=Que Reste-t-il De Nos Amours ?
EXTD=YEAR: 2011
EXTT0=
EXTT1=
EXTT2=
EXTT3=
EXTT4=
EXTT5=
EXTT6=
EXTT7=
EXTT8=
EXTT9=
EXTT10=
EXTT11=
PLAYORDER=
